<?xml version="1.0" standalone="no"?>
<!DOCTYPE svg PUBLIC "-//W3C//DTD SVG 20010904//EN"
 "http://www.w3.org/TR/2001/REC-SVG-20010904/DTD/svg10.dtd">
<svg version="1.0" xmlns="http://www.w3.org/2000/svg"
 width="228.000000pt" height="221.000000pt" viewBox="0 0 228.000000 221.000000"
 preserveAspectRatio="xMidYMid meet">

<g transform="translate(0.000000,221.000000) scale(0.100000,-0.100000)"
fill="#000000" stroke="none">
<path d="M1045 2100 c-108 -12 -220 -46 -330 -100 -262 -130 -430 -360 -451
-619 l-7 -83 -53 -50 c-62 -58 -95 -120 -96 -178 0 -49 20 -75 78 -101 34 -16
43 -25 48 -53 4 -19 16 -46 27 -60 l21 -27 -27 -39 c-34 -49 -42 -107 -21
-147 8 -17 22 -63 30 -102 30 -144 115 -253 244 -314 l67 -32 585 0 585 0 65
31 c130 62 217 172 244 311 8 38 21 85 30 105 21 49 20 73 -4 124 -20 41 -20
45 -5 105 13 51 24 70 55 96 21 18 40 45 43 59 8 45 -19 116 -66 169 l-44 50
-6 105 c-10 164 -65 303 -171 432 -188 227 -519 353 -841 318z m347 -99 c169
-44 289 -111 398 -222 119 -121 182 -261 184 -409 l1 -85 -805 0 c-443 -1
-811 1 -817 3 -20 6 -16 118 8 202 74 269 308 464 628 525 104 20 301 13 403
-14z m619 -816 c67 -50 103 -117 81 -152 -11 -18 -59 -33 -105 -33 -47 0 -160
49 -232 101 l-44 32 -43 -18 c-24 -9 -83 -19 -133 -22 -75 -4 -101 -2 -152 16
-85 29 -96 27 -124 -16 -37 -58 -78 -75 -175 -71 -77 3 -84 5 -130 41 -52 40
-57 41 -129 13 -63 -24 -216 -21 -292 6 l-62 21 -73 -33 c-179 -80 -274 -33
-178 89 l40 51 858 0 858 0 35 -25z m-631 -156 c27 -6 50 -15 50 -20 0 -10
-187 -276 -201 -284 -11 -7 -31 4 -251 148 -93 60 -166 113 -163 117 3 4 20
11 40 14 27 5 42 1 72 -18 106 -69 296 -55 372 28 14 14 26 26 27 26 2 0 26
-5 54 -11z m378 -24 c67 -41 159 -75 199 -75 42 0 51 -10 41 -46 l-8 -31 -202
-12 c-112 -6 -242 -14 -290 -18 -54 -3 -88 -2 -88 4 0 5 26 48 59 94 l58 84
74 16 c41 9 79 17 86 18 6 0 38 -15 71 -34z m-1198 -10 c30 -8 65 -15 79 -15
13 0 77 -33 140 -72 l116 -73 -60 -3 c-78 -5 -442 17 -470 28 -23 9 -48 41
-59 76 -6 20 0 24 61 43 37 11 75 25 83 31 8 6 24 8 35 5 11 -3 45 -12 75 -20z
m169 -241 l314 -16 91 -59 91 -59 -439 0 c-438 0 -440 0 -463 22 -16 15 -23
33 -23 58 0 52 37 82 90 74 14 -2 166 -11 339 -20z m1275 -6 c23 -33 20 -75
-9 -103 l-24 -25 -356 0 c-292 0 -355 2 -348 13 4 7 23 34 42 60 33 45 37 47
85 48 28 1 132 7 231 14 99 6 221 13 272 14 84 1 93 -1 107 -21z m-26 -212 c1
-2 -7 -29 -18 -60 -26 -68 -95 -142 -165 -176 l-50 -25 -585 0 c-576 0 -586 0
-631 21 -87 40 -156 123 -184 221 l-6 23 398 2 c425 3 1236 -1 1241 -6z"/>
<path d="M1009 1888 c-10 -18 -8 -24 11 -40 38 -31 83 15 48 50 -19 19 -46 14
-59 -10z"/>
<path d="M1170 1895 c-14 -17 -5 -51 15 -59 8 -3 24 3 36 13 18 15 20 21 10
39 -13 25 -43 29 -61 7z"/>
<path d="M854 1856 c-12 -31 0 -51 31 -51 27 0 30 3 30 30 0 25 -4 30 -28 33
-17 2 -29 -2 -33 -12z"/>
<path d="M1324 1856 c-12 -31 0 -51 31 -51 27 0 30 3 30 30 0 25 -4 30 -28 33
-17 2 -29 -2 -33 -12z"/>
<path d="M701 1816 c-19 -22 -4 -56 23 -56 32 0 53 26 39 48 -14 23 -47 27
-62 8z"/>
<path d="M1481 1812 c-13 -25 5 -52 34 -52 15 0 26 7 30 20 13 41 -44 70 -64
32z"/>
<path d="M1639 1774 c-17 -21 0 -49 31 -49 31 0 48 28 31 49 -8 9 -21 16 -31
16 -10 0 -23 -7 -31 -16z"/>
<path d="M974 1736 c-11 -28 1 -51 25 -51 28 0 47 25 38 49 -8 20 -56 21 -63
2z"/>
<path d="M1165 1730 c-14 -44 44 -69 65 -29 9 15 8 24 -1 35 -18 21 -57 18
-64 -6z"/>
<path d="M550 1702 c-19 -16 -21 -22 -11 -40 13 -24 40 -29 59 -10 35 35 -10
81 -48 50z"/>
<path d="M825 1707 c-10 -8 -16 -23 -13 -38 2 -19 9 -24 33 -24 25 0 31 4 33
27 4 34 -26 54 -53 35z"/>
<path d="M1337 1709 c-23 -13 -22 -56 2 -64 28 -9 51 5 51 31 0 29 -28 46 -53
33z"/>
<path d="M1486 1661 c-33 -36 18 -83 52 -49 18 18 14 46 -7 58 -25 13 -25 13
-45 -9z"/>
<path d="M708 1629 c-33 -19 -15 -69 24 -69 15 0 38 27 38 44 0 7 -31 36 -38
36 -4 0 -15 -5 -24 -11z"/>
<path d="M1800 1625 c-26 -31 13 -82 44 -56 19 16 21 42 4 59 -16 16 -33 15
-48 -3z"/>
<path d="M942 1588 c-19 -19 -14 -56 8 -63 24 -8 50 10 50 34 0 19 -19 41 -35
41 -6 0 -16 -5 -23 -12z"/>
<path d="M1096 1584 c-19 -18 -19 -20 -6 -45 17 -31 70 -18 70 17 0 14 -27 44
-40 44 -5 0 -16 -7 -24 -16z"/>
<path d="M1252 1588 c-28 -28 -1 -75 37 -63 27 8 34 35 15 56 -20 22 -35 24
-52 7z"/>
<path d="M1642 1588 c-23 -23 -7 -68 24 -68 14 0 44 27 44 40 0 13 -30 40 -44
40 -6 0 -17 -5 -24 -12z"/>
<path d="M513 1553 c-22 -8 -16 -61 7 -68 39 -12 66 35 38 63 -13 13 -24 14
-45 5z"/>
<path d="M820 1505 c-26 -31 13 -82 44 -56 21 17 21 57 0 65 -23 9 -30 8 -44
-9z"/>
<path d="M1446 1504 c-21 -20 -20 -27 3 -48 36 -33 83 18 49 52 -16 16 -33 15
-52 -4z"/>
</g>
</svg>
