<?xml version="1.0" standalone="no"?>
<!DOCTYPE svg PUBLIC "-//W3C//DTD SVG 20010904//EN"
 "http://www.w3.org/TR/2001/REC-SVG-20010904/DTD/svg10.dtd">
<svg version="1.0" xmlns="http://www.w3.org/2000/svg"
 width="200.000000pt" height="200.000000pt" viewBox="0 0 200.000000 200.000000"
 preserveAspectRatio="xMidYMid meet">

<g transform="translate(0.000000,200.000000) scale(0.100000,-0.100000)"
fill="#000000" stroke="none">
<path d="M1130 1590 c-14 -4 -45 -17 -70 -28 -35 -17 -57 -20 -101 -15 -52 5
-58 3 -90 -25 l-34 -30 0 -139 c-1 -159 -10 -187 -80 -252 -62 -57 -123 -85
-289 -130 -167 -46 -230 -75 -287 -132 -115 -115 -120 -292 -10 -365 75 -49
115 -55 441 -65 501 -14 966 9 1106 57 111 37 185 124 192 225 6 86 -13 141
-69 203 -56 61 -110 92 -254 147 -136 51 -176 71 -225 115 -65 59 -83 109 -85
238 -3 146 -20 183 -95 199 -14 2 -36 1 -50 -3z m71 -66 c9 -12 16 -57 19
-138 7 -139 23 -184 91 -254 55 -55 108 -85 235 -133 190 -71 255 -114 293
-193 56 -114 -7 -246 -138 -291 -25 -8 -100 -23 -166 -33 -102 -14 -202 -17
-655 -17 -605 0 -626 2 -692 64 -30 27 -41 46 -45 78 -8 64 14 127 63 182 51
57 115 88 270 130 61 16 136 40 168 51 84 32 173 104 210 170 30 54 31 57 31
193 0 163 4 170 89 161 41 -4 61 0 101 20 59 29 107 33 126 10z"/>
<path d="M1088 1444 c-3 -3 -2 -22 3 -42 12 -52 11 -172 -2 -234 -18 -82 -45
-127 -128 -208 -42 -41 -108 -110 -146 -154 -110 -124 -248 -207 -345 -208
-28 0 -57 6 -65 12 -20 16 -19 50 1 78 9 13 13 30 9 40 -11 29 -65 -40 -65
-84 0 -55 38 -84 110 -84 136 0 230 61 450 291 184 193 201 218 221 333 11 67
8 212 -6 249 -7 16 -26 23 -37 11z"/>
<path d="M997 1432 c-3 -4 -1 -32 5 -62 20 -111 -10 -221 -80 -293 -20 -21
-75 -58 -122 -83 -96 -49 -167 -112 -156 -139 5 -15 13 -11 50 23 25 23 81 59
125 82 100 50 153 102 194 188 29 60 32 76 31 157 0 51 -5 100 -12 113 -13 22
-27 28 -35 14z"/>
<path d="M1162 1073 c0 -43 -5 -97 -12 -121 -17 -55 -71 -116 -134 -150 -91
-50 -119 -129 -62 -178 27 -24 99 -34 110 -16 10 16 -11 31 -43 30 -22 -1 -39
5 -47 17 -28 38 -11 76 49 106 69 35 111 74 142 131 26 47 30 65 33 156 4 98
3 102 -16 102 -19 0 -21 -6 -20 -77z"/>
<path d="M1300 1068 c0 -7 9 -42 20 -76 24 -75 25 -126 5 -207 -28 -116 -13
-188 47 -225 41 -25 74 -25 114 -1 32 20 62 81 49 101 -12 20 -33 10 -38 -19
-13 -63 -77 -82 -122 -36 -30 29 -32 67 -9 175 19 88 14 174 -14 246 -18 45
-52 73 -52 42z"/>
</g>
</svg>
