<svg xmlns="http://www.w3.org/2000/svg" width="170" height="35.6" viewBox="0 0 170 35.6">
  <g id="Logo" transform="translate(-18 -21.467)">
    <text id="ხინკალმეტრი" transform="translate(76 45)" fill="#78909c" font-size="14" font-family="SegoeUI-Bold, Segoe UI" font-weight="700"><tspan x="0" y="0">ხინკალმეტრი</tspan></text>
    <g id="barometer" transform="translate(17.407 227.043)">
      <path id="Path_29" data-name="Path 29" d="M20.784-205.454A24.248,24.248,0,0,0,1.678-189.2a18.719,18.719,0,0,0-1.084,7.332,22.4,22.4,0,0,0,2.274,10.414c.808,1.658,1.3,1.828,2.805.956,1.424-.85,1.509-1.126.744-2.635a28.083,28.083,0,0,1-1.211-3.145c-.51-1.7-.574-2.189-.574-5.483-.021-3.974.255-5.4,1.551-8.288a22.071,22.071,0,0,1,8.182-9.011,20.325,20.325,0,0,1,11.944-2.572,18.935,18.935,0,0,1,11.752,5.419,19.88,19.88,0,0,1,5.483,8.968c.51,1.7.574,2.189.574,5.377.021,3.932-.276,5.377-1.679,8.437-.85,1.849-.808,2.083.638,2.933,1.488.871,1.955.7,2.784-.956a22.012,22.012,0,0,0,2.3-10.2,21.985,21.985,0,0,0-2.444-10.732,23.931,23.931,0,0,0-15.387-12.539,19.178,19.178,0,0,0-5.207-.638A35.158,35.158,0,0,0,20.784-205.454Z" transform="translate(0 0)" fill="#78909c"/>
      <path id="Path_30" data-name="Path 30" d="M108.34-182.66c-.234.234-.34.744-.34,1.679,0,1.36.3,2.019.956,2.019s.956-.659.956-2.019-.3-2.019-.956-2.019A1.066,1.066,0,0,0,108.34-182.66Z" transform="translate(-84.581 -17.779)" fill="#78909c"/>
      <path id="Path_31" data-name="Path 31" d="M66.3-170.823c-.425.425-.3,1.084.446,2.189.786,1.211,1.424,1.445,1.913.723.383-.51.255-.956-.6-2.316C67.516-171.1,66.836-171.355,66.3-170.823Z" transform="translate(-51.556 -27.15)" fill="#78909c"/>
      <path id="Path_32" data-name="Path 32" d="M146.535-170.228c-.85,1.36-.978,1.806-.6,2.316.489.723,1.126.489,1.913-.723.744-1.105.871-1.764.446-2.189C147.768-171.355,147.088-171.1,146.535-170.228Z" transform="translate(-114.296 -27.15)" fill="#78909c"/>
      <path id="Path_34" data-name="Path 34" d="M35.324-139.6c-.446.553-.064,1.233,1.041,1.849,1.169.659,1.764.744,2.146.276.468-.553.064-1.275-1.041-1.87C36.3-139.982,35.707-140.067,35.324-139.6Z" transform="translate(-27.207 -51.722)" fill="#78909c"/>
      <path id="Path_35" data-name="Path 35" d="M174.286-139.344c-1.063.6-1.466,1.318-1,1.87.383.468.978.383,2.146-.276,1.105-.616,1.488-1.3,1.041-1.849C176.092-140.067,175.433-139.982,174.286-139.344Z" transform="translate(-135.841 -51.722)" fill="#78909c"/>
      <path id="Path_36" data-name="Path 36" d="M24.169-97.865a1.6,1.6,0,0,0,.106,1.509,4.578,4.578,0,0,0,3.23-.085.9.9,0,0,0,.085-1.318A7.464,7.464,0,0,0,24.169-97.865Z" transform="translate(-18.453 -84.7)" fill="#78909c"/>
      <path id="Path_37" data-name="Path 37" d="M183.287-97.634a.905.905,0,0,0,.085,1.318c.234.234.723.34,1.658.34,1.509,0,1.891-.255,1.785-1.211-.064-.6-.085-.6-1.658-.659C184.095-97.889,183.478-97.825,183.287-97.634Z" transform="translate(-143.674 -84.825)" fill="#78909c"/>
      <path id="Path_38" data-name="Path 38" d="M36.669-60.3c-.978.6-1.169.808-1.169,1.318,0,.914.531,1.126,1.615.638,1.3-.6,1.891-1.126,1.891-1.7a1.07,1.07,0,0,0-1-.956A8.24,8.24,0,0,0,36.669-60.3Z" transform="translate(-27.489 -113.851)" fill="#78909c"/>
      <path id="Path_39" data-name="Path 39" d="M173.383-60.619A.882.882,0,0,0,173-59.9c0,.574.6,1.105,1.891,1.7,1.084.489,1.615.276,1.615-.638,0-.51-.191-.723-1.169-1.318C174.063-60.916,173.935-60.937,173.383-60.619Z" transform="translate(-135.767 -113.998)" fill="#78909c"/>
      <g id="khinkali-1" transform="matrix(0.809, 0.588, -0.588, 0.809, 22.034, -191.014)">
        <path id="Path_40" data-name="Path 40" d="M6.35.051C5.532.224,5.3.542,5.224,1.543l-.058.722-.779.481C1.616,4.448.01,6.613,0,8.623c0,2.213,1.655,4.1,4.2,4.8a12.084,12.084,0,0,0,3.954.308A6.912,6.912,0,0,0,12.594,11.9C15.316,9.191,14.133,5.5,9.659,2.745L8.88,2.264l-.067-.741C8.745.715,8.582.388,8.13.167A3.977,3.977,0,0,0,6.35.051Zm.077.654a4.1,4.1,0,0,0-.471,1.6c-.221,1.943-1.761,4.6-3.05,5.253-.471.241-.587.443-.385.654.135.125.192.125.529-.048A6.257,6.257,0,0,0,4.762,6.6c.192-.269.587-.924.875-1.462l.529-.991L6.128,5.785a5.74,5.74,0,0,1-.25,2.194c-.231.577-.212.837.038.837.231,0,.51-.548.683-1.337A7.89,7.89,0,0,0,6.706,5.17c-.038-.875-.087-1.732-.115-1.886-.048-.241-.019-.221.164.144.125.241.52.914.875,1.491A5.914,5.914,0,0,1,8.755,7.95c0,.7.087.9.346.847.154-.029.192-.135.212-.645.058-1.145-.269-2.049-1.347-3.81a5.527,5.527,0,0,1-.847-1.607c.01-.067.077,0,.164.164A5.914,5.914,0,0,0,9,4.583c1.645,1.28,2.232,2.02,2.338,2.934.048.481.2.664.452.568.144-.058.164-.154.115-.6a3.843,3.843,0,0,0-.885-1.924A14.789,14.789,0,0,0,9.592,4.323c-.6-.452-1.2-.943-1.357-1.078A2.076,2.076,0,0,1,7.716,1.1c.077-.25.154-.366.26-.346.183.038.269.4.289,1.154.01.654-.029.616,1.4,1.539a8.61,8.61,0,0,1,3.627,4.031,4,4,0,0,1-1.741,4.551,8.382,8.382,0,0,1-5.551,1.116,7.436,7.436,0,0,1-2.867-.76A4.075,4.075,0,0,1,1.337,6.257,14.305,14.305,0,0,1,5.532,2.7c.154-.087.2-.269.25-.952.048-.654.106-.885.241-.981C6.205.629,6.484.59,6.427.706Z" transform="translate(0 0)" fill="#78909c"/>
      </g>
    </g>
  </g>
</svg>
